name baseline.mot
datacolumns 19
datarows 11
range 4.74164900000000 4.75831400000000
endheader
time	ground_force1_vx	ground_force1_vy	ground_force1_vz	ground_force1_px	ground_force1_py	ground_force1_pz	ground_force2_vx	ground_force2_vy	ground_force2_vz	ground_force2_px	ground_force2_py	ground_force2_pz	ground_torque1_x	ground_torque1_y	ground_torque1_z	ground_torque2_x	ground_torque2_y	ground_torque2_z	
4.74164900000000	-7.14015600000000	41.35524300000000	-17.06912000000000	0.17157100000000	0.00000000000000	0.11590100000000	-56.03249000000000	781.85385199999996	-69.29752999999999	-0.01238100000000	0.00000000000000	-0.13372000000000	0.00000000000000	-6.03104500000000	0.00000000000000	0.00000000000000	-10.96777800000000	0.00000000000000	
4.74331200000000	-7.72362800000000	48.26230900000000	-19.24856400000000	0.17693200000000	0.00000000000000	0.11737800000000	-56.92338700000000	780.16265599999997	-69.20434899999999	-0.01318700000000	0.00000000000000	-0.13358100000000	0.00000000000000	-6.97233500000000	0.00000000000000	0.00000000000000	-11.09783100000000	0.00000000000000	
4.74501900000000	-8.14378300000000	55.20544000000000	-21.24884500000000	0.18188100000000	0.00000000000000	0.11876100000000	-57.83713600000000	778.36495700000000	-69.09074800000000	-0.01398900000000	0.00000000000000	-0.13343800000000	0.00000000000000	-7.88433700000000	0.00000000000000	0.00000000000000	-11.23733300000000	0.00000000000000	
4.74665100000000	-8.38121800000000	62.09265200000000	-23.02500300000000	0.18646500000000	0.00000000000000	0.12006500000000	-58.77314600000000	776.45701399999996	-68.95592400000000	-0.01478600000000	0.00000000000000	-0.13329200000000	0.00000000000000	-8.74754300000000	0.00000000000000	0.00000000000000	-11.38627300000000	0.00000000000000	
4.74831900000000	-8.42530400000000	68.85637500000000	-24.54686300000000	0.19072400000000	0.00000000000000	0.12129800000000	-59.73071300000000	774.43501700000002	-68.79909000000001	-0.01558000000000	0.00000000000000	-0.13314300000000	0.00000000000000	-9.54710500000000	0.00000000000000	0.00000000000000	-11.54460100000000	0.00000000000000	
4.75002300000000	-8.27393400000000	75.45535800000000	-25.79928200000000	0.19469100000000	0.00000000000000	0.12247100000000	-60.70901800000000	772.29509099999996	-68.61947200000000	-0.01636900000000	0.00000000000000	-0.13299000000000	0.00000000000000	-10.27328900000000	0.00000000000000	0.00000000000000	-11.71223500000000	0.00000000000000	
4.75164800000000	-7.93262700000000	81.87409700000001	-26.78113500000000	0.19839300000000	0.00000000000000	0.12358900000000	-61.70712200000000	770.03330400000004	-68.41631800000000	-0.01715400000000	0.00000000000000	-0.13283400000000	0.00000000000000	-10.92143000000000	0.00000000000000	0.00000000000000	-11.88905700000000	0.00000000000000	
4.75331700000000	-7.41314800000000	88.12022800000000	-27.50331400000000	0.20185500000000	0.00000000000000	0.12466000000000	-62.72396400000000	767.64568099999997	-68.18889700000000	-0.01793600000000	0.00000000000000	-0.13267400000000	0.00000000000000	-11.49147900000000	0.00000000000000	0.00000000000000	-12.07490900000000	0.00000000000000	
4.75499500000000	-6.73186100000000	94.22046899999999	-27.98609200000000	0.20509700000000	0.00000000000000	0.12568700000000	-63.75836300000000	765.12820699999997	-67.93650500000000	-0.01871500000000	0.00000000000000	-0.13251100000000	0.00000000000000	-11.98723500000000	0.00000000000000	0.00000000000000	-12.26959800000000	0.00000000000000	
4.75665100000000	-5.90797900000000	100.21569000000000	-28.25617800000000	0.20813600000000	0.00000000000000	0.12667600000000	-64.80901299999999	762.47684100000004	-67.65846500000001	-0.01949000000000	0.00000000000000	-0.13234500000000	0.00000000000000	-12.41539700000000	0.00000000000000	0.00000000000000	-12.47289300000000	0.00000000000000	
4.75831400000000	-4.96188800000000	106.15567600000000	-28.34375400000000	0.21099000000000	0.00000000000000	0.12763100000000	-65.87448500000001	759.68752300000006	-67.35413400000000	-0.02026300000000	0.00000000000000	-0.13217600000000	0.00000000000000	-12.78452800000000	0.00000000000000	0.00000000000000	-12.68452400000000	0.00000000000000	
